<?xml version="1.0" encoding="utf-8"?>
<!-- Generator: Adobe Illustrator 27.0.1, SVG Export Plug-In . SVG Version: 6.00 Build 0)  -->
<svg version="1.1" id="Layer_1" xmlns="http://www.w3.org/2000/svg" xmlns:xlink="http://www.w3.org/1999/xlink" x="0px" y="0px"
	 viewBox="0 0 287.8 63.4" style="enable-background:new 0 0 287.8 63.4;" xml:space="preserve">
<style type="text/css">
	.st0{fill:#414042;}
</style>
<g>
	<path class="st0" d="M111.7,60.4l0.7,0.8c-0.9,0.9-1.9,1.4-3.2,1.4c-1,0-1.9-0.3-2.5-1c-0.7-0.7-1-1.5-1-2.5c0-1,0.3-1.8,1-2.5
		s1.5-1,2.5-1c0.6,0,1.1,0.1,1.7,0.3c0.5,0.2,1,0.5,1.3,0.9l-0.7,0.8c-0.3-0.3-0.6-0.5-1-0.7c-0.4-0.2-0.8-0.3-1.2-0.3
		c-0.7,0-1.2,0.2-1.7,0.7c-0.4,0.5-0.6,1.1-0.6,1.8c0,0.7,0.2,1.3,0.7,1.8c0.4,0.5,1,0.7,1.7,0.7c0.5,0,0.9-0.1,1.3-0.3
		S111.4,60.7,111.7,60.4"/>
	<path class="st0" d="M120.3,59c0,0.7,0.2,1.3,0.7,1.8c0.5,0.5,1.1,0.7,1.7,0.7c0.7,0,1.3-0.2,1.8-0.7c0.5-0.5,0.7-1.1,0.7-1.8
		c0-0.7-0.2-1.3-0.7-1.8c-0.5-0.5-1.1-0.7-1.8-0.7c-0.7,0-1.3,0.2-1.7,0.7C120.5,57.7,120.3,58.3,120.3,59 M119.1,59
		c0-1,0.3-1.8,1-2.5c0.7-0.7,1.5-1,2.6-1c1,0,1.9,0.3,2.6,1c0.7,0.7,1.1,1.5,1.1,2.5c0,1-0.4,1.8-1.1,2.5c-0.7,0.7-1.6,1-2.6,1
		c-1,0-1.9-0.3-2.6-1C119.5,60.8,119.1,60,119.1,59"/>
</g>
<polygon class="st0" points="139.1,55.6 139.1,60.3 139,60.3 135.3,55.6 134.4,55.6 134.4,62.3 135.5,62.3 135.5,57.7 135.5,57.7 
	139.2,62.3 140.2,62.3 140.2,55.6 "/>
<g>
	<path class="st0" d="M154,56.4l-0.7,0.8c-0.2-0.2-0.5-0.4-0.9-0.5c-0.4-0.2-0.9-0.2-1.4-0.2c-0.4,0-0.8,0.1-1,0.2
		c-0.3,0.2-0.4,0.4-0.4,0.7c0,0.2,0,0.3,0.1,0.4c0.1,0.1,0.2,0.2,0.4,0.2c0.2,0.1,0.4,0.1,0.5,0.1c0.2,0,0.4,0,0.7,0.1
		c0.1,0,0.1,0,0.1,0c0.2,0,0.4,0,0.5,0c0.1,0,0.3,0,0.6,0.1c0.2,0,0.4,0.1,0.6,0.1c0.1,0.1,0.3,0.1,0.5,0.2c0.2,0.1,0.3,0.2,0.4,0.4
		c0.1,0.1,0.2,0.3,0.3,0.5c0.1,0.2,0.1,0.4,0.1,0.7c0,0.8-0.3,1.3-0.8,1.7c-0.5,0.4-1.2,0.5-2,0.5c-1.3,0-2.5-0.5-3.5-1.4l0.7-0.8
		c0.9,0.8,1.8,1.2,2.9,1.2c0.5,0,0.9-0.1,1.2-0.3c0.3-0.2,0.5-0.5,0.5-0.8c0-0.4-0.2-0.7-0.5-0.8c-0.3-0.1-0.8-0.2-1.4-0.3
		c-0.2,0-0.4,0-0.5,0c-0.1,0-0.3,0-0.5-0.1c-0.2,0-0.4-0.1-0.5-0.1c-0.1,0-0.3-0.1-0.5-0.1c-0.2-0.1-0.3-0.1-0.4-0.2
		c-0.1-0.1-0.2-0.2-0.3-0.3c-0.1-0.1-0.2-0.3-0.2-0.4c0-0.2-0.1-0.3-0.1-0.5c0-0.4,0.1-0.7,0.2-1c0.2-0.3,0.4-0.5,0.6-0.6
		c0.3-0.2,0.5-0.3,0.8-0.3c0.3-0.1,0.6-0.1,0.9-0.1c0.6,0,1.2,0.1,1.7,0.3C153.2,55.9,153.6,56.1,154,56.4"/>
</g>
<polygon class="st0" points="161.2,55.6 161.2,56.7 163.8,56.7 163.8,62.3 164.9,62.3 164.9,56.7 167.4,56.7 167.4,55.6 "/>
<g>
	<path class="st0" d="M178.7,56.7h-2.4v2.1h2.6c0.3,0,0.5-0.1,0.8-0.3c0.2-0.2,0.3-0.5,0.3-0.7c0-0.2-0.1-0.5-0.3-0.7
		C179.5,56.8,179.1,56.7,178.7,56.7 M176.3,62.3h-1.1v-6.7h3.5c0.8,0,1.4,0.2,1.9,0.7c0.3,0.4,0.5,0.8,0.5,1.3
		c0,0.4-0.1,0.8-0.4,1.2c-0.3,0.3-0.6,0.6-1,0.8l1.5,2.7h-1.3l-1.4-2.6h-2.3V62.3z"/>
	<path class="st0" d="M193.7,55.6h1.1V60c0,0.8-0.3,1.4-0.8,1.9c-0.5,0.5-1.2,0.7-2.1,0.7c-0.8,0-1.5-0.2-2-0.7
		c-0.5-0.5-0.8-1.1-0.8-1.9v-4.3h1.1V60c0,0.5,0.2,0.9,0.5,1.1c0.3,0.3,0.7,0.4,1.2,0.4c0.5,0,0.9-0.1,1.3-0.4
		c0.3-0.3,0.5-0.7,0.5-1.1V55.6z"/>
	<path class="st0" d="M208.6,60.4l0.7,0.8c-0.9,0.9-1.9,1.4-3.2,1.4c-1,0-1.9-0.3-2.5-1c-0.7-0.7-1-1.5-1-2.5c0-1,0.3-1.8,1-2.5
		s1.5-1,2.5-1c0.6,0,1.1,0.1,1.7,0.3c0.5,0.2,1,0.5,1.4,0.9l-0.7,0.8c-0.3-0.3-0.6-0.5-1-0.7c-0.4-0.2-0.8-0.3-1.2-0.3
		c-0.7,0-1.2,0.2-1.7,0.7c-0.4,0.5-0.6,1.1-0.6,1.8c0,0.7,0.2,1.3,0.7,1.8c0.4,0.5,1,0.7,1.7,0.7c0.5,0,0.9-0.1,1.3-0.3
		C208,61,208.3,60.7,208.6,60.4"/>
</g>
<polygon class="st0" points="216.4,55.6 216.4,56.7 218.9,56.7 218.9,62.3 220,62.3 220,56.7 222.5,56.7 222.5,55.6 "/>
<rect x="230.3" y="55.6" class="st0" width="1.1" height="6.7"/>
<g>
	<path class="st0" d="M240.6,59c0,0.7,0.2,1.3,0.7,1.8c0.5,0.5,1.1,0.7,1.7,0.7c0.7,0,1.3-0.2,1.8-0.7s0.7-1.1,0.7-1.8
		c0-0.7-0.2-1.3-0.7-1.8c-0.5-0.5-1.1-0.7-1.8-0.7c-0.7,0-1.3,0.2-1.7,0.7C240.8,57.7,240.6,58.3,240.6,59 M239.4,59
		c0-1,0.3-1.8,1-2.5c0.7-0.7,1.5-1,2.6-1c1,0,1.9,0.3,2.6,1c0.7,0.7,1.1,1.5,1.1,2.5c0,1-0.4,1.8-1.1,2.5s-1.6,1-2.6,1
		c-1,0-1.9-0.3-2.6-1C239.8,60.8,239.4,60,239.4,59"/>
</g>
<polygon class="st0" points="259.4,55.6 259.4,60.3 259.4,60.3 255.7,55.6 254.7,55.6 254.7,62.3 255.8,62.3 255.8,57.7 255.8,57.7 
	259.5,62.3 260.5,62.3 260.5,55.6 "/>
<g>
	<path class="st0" d="M274.3,56.4l-0.7,0.8c-0.2-0.2-0.5-0.4-0.9-0.5c-0.4-0.2-0.9-0.2-1.4-0.2c-0.4,0-0.8,0.1-1,0.2
		c-0.3,0.2-0.4,0.4-0.4,0.7c0,0.2,0,0.3,0.1,0.4c0.1,0.1,0.2,0.2,0.4,0.2c0.2,0.1,0.4,0.1,0.5,0.1c0.2,0,0.4,0,0.7,0.1
		c0.1,0,0.1,0,0.1,0c0.2,0,0.4,0,0.5,0c0.1,0,0.3,0,0.5,0.1c0.2,0,0.4,0.1,0.6,0.1c0.1,0.1,0.3,0.1,0.5,0.2c0.2,0.1,0.3,0.2,0.4,0.4
		c0.1,0.1,0.2,0.3,0.3,0.5c0.1,0.2,0.1,0.4,0.1,0.7c0,0.8-0.3,1.3-0.8,1.7c-0.5,0.4-1.2,0.5-2,0.5c-1.3,0-2.5-0.5-3.5-1.4l0.7-0.8
		c0.9,0.8,1.8,1.2,2.9,1.2c0.5,0,0.9-0.1,1.2-0.3c0.3-0.2,0.5-0.5,0.5-0.8c0-0.4-0.2-0.7-0.5-0.8c-0.3-0.1-0.8-0.2-1.4-0.3
		c-0.2,0-0.4,0-0.5,0c-0.1,0-0.3,0-0.5-0.1c-0.2,0-0.4-0.1-0.5-0.1c-0.1,0-0.3-0.1-0.5-0.1c-0.2-0.1-0.3-0.1-0.4-0.2
		c-0.1-0.1-0.2-0.2-0.3-0.3c-0.1-0.1-0.2-0.3-0.2-0.4c0-0.2-0.1-0.3-0.1-0.5c0-0.4,0.1-0.7,0.2-1c0.2-0.3,0.4-0.5,0.6-0.6
		c0.3-0.2,0.5-0.3,0.8-0.3c0.3-0.1,0.6-0.1,0.9-0.1c0.6,0,1.2,0.1,1.7,0.3C273.6,55.9,274,56.1,274.3,56.4"/>
	<path class="st0" d="M5.9,3.9h5.5c2.5,0,4.6,0.5,6,1.6c1.4,1,2.1,2.4,2.1,4.2c0,1.4-0.3,2.6-0.8,3.3c-0.5,0.8-1.2,1.5-1.8,2.1
		c-0.7,0.6-1.3,1.1-1.9,1.6c-0.7,0.6-1.1,1.3-1.1,2.2c0,1,0.5,2,1.5,2.9c0.8,0.8,1.8,1.6,2.8,2.5c1,0.8,1.8,1.8,2.7,2.9
		c0.8,1,1.1,2.3,1.1,3.9c0,2.6-0.8,4.5-2.5,5.8c-1.7,1.4-4.2,2.1-7.4,2.1H5.9V3.9z M24.5,24c-0.8-0.8-1.6-1.5-2.4-2.1
		c-0.8-0.6-1.6-1.1-2.3-1.6c-0.7-0.5-1.3-0.9-1.8-1.2c-0.2-0.1-0.5-0.4-0.5-0.7c0-0.4,0.3-0.7,0.8-1c0.8-0.4,1.6-1,2.5-1.6
		c0.9-0.7,1.8-1.5,2.6-2.4c0.8-1,1.3-2.4,1.3-4c0-2.5-1.2-4.6-3.5-6C19,1.9,15.9,1.2,12,1.2H1.2v40.4h12c2.1,0,4-0.2,5.7-0.7
		c1.7-0.5,3.2-1.2,4.4-2.1c1.2-0.9,2.2-2.1,2.9-3.5c0.7-1.3,1-2.9,1-4.5c0-1.5-0.3-2.8-0.8-3.9C25.9,25.8,25.3,24.8,24.5,24"/>
	<path class="st0" d="M53.3,29.2H37.8l7.8-19.9L53.3,29.2z M45.7,1.2L29.8,41.6h1.9c0.8,0,1.4-0.4,1.7-1.2l3.3-8.5h17.6l3.3,8.5
		c0.3,0.8,0.9,1.2,1.7,1.2H63L47.1,1.2H45.7z"/>
	<path class="st0" d="M97.1,33.6c-1.5,1.8-3.4,3.1-5.5,4.1c-2.1,1-4.3,1.4-6.7,1.4c-2.3,0-4.4-0.5-6.3-1.4c-1.9-0.9-3.6-2.2-5-3.9
		c-1.4-1.7-2.5-3.7-3.3-5.9c-0.8-2.3-1.2-4.8-1.2-7.5c0-2.5,0.4-4.9,1.1-7c0.7-2.1,1.8-3.9,3.1-5.3c1.3-1.5,3-2.6,4.8-3.4
		c1.9-0.8,3.9-1.2,6.2-1.2c3.7,0,7.1,1.5,10,4.3l0.5,0.5l2.4-3.5l-0.5-0.4c-1.6-1.2-3.5-2.1-5.6-2.7c-2.2-0.6-4.4-1-6.6-1
		c-3,0-5.8,0.5-8.3,1.6c-2.5,1-4.7,2.5-6.6,4.3c-1.8,1.8-3.3,4-4.3,6.6c-1,2.5-1.6,5.3-1.6,8.3c0,3,0.5,5.8,1.5,8.3
		c1,2.5,2.5,4.8,4.3,6.6c1.8,1.8,4,3.3,6.5,4.3c2.5,1,5.3,1.6,8.2,1.6c2.9,0,5.6-0.6,8.2-1.8c2.6-1.2,4.7-3,6.4-5.3l0.4-0.5
		l-1.9-1.4L97.1,33.6z"/>
</g>
<polygon class="st0" points="130.1,1.2 130.1,19 110.8,19 110.8,1.2 106.1,1.2 106.1,41.6 110.8,41.6 110.8,21.7 130.1,21.7 
	130.1,41.6 134.8,41.6 134.8,1.2 "/>
<g>
	<path class="st0" d="M164.4,29.2h-15.5l7.8-19.9L164.4,29.2z M156.8,1.2l-15.9,40.4h1.9c0.8,0,1.4-0.4,1.7-1.2l3.3-8.5h17.6
		l3.3,8.5c0.3,0.8,0.9,1.2,1.7,1.2h3.6L158.2,1.2H156.8z"/>
	<path class="st0" d="M183.2,33.7V1.2h-4.7v32.1c0,2.6,0.7,4.6,2.2,6.1c1.4,1.5,3.5,2.2,6,2.2h14.9v-2.7h-13.5
		C184.7,38.9,183.2,37.2,183.2,33.7"/>
	<path class="st0" d="M230.6,29.2h-15.5l7.8-19.9L230.6,29.2z M223,1.2l-15.9,40.4h1.9c0.8,0,1.4-0.4,1.7-1.2l3.3-8.5h17.6l3.3,8.5
		c0.3,0.8,0.9,1.2,1.7,1.2h3.6L224.4,1.2H223z"/>
</g>
<polygon class="st0" points="272.1,1.2 272.1,32.1 247.5,1.4 247.3,1.2 245.8,1.2 245.8,41.6 248.8,41.6 248.8,10.4 273.7,41.4 
	273.9,41.6 275.1,41.6 275.1,1.2 "/>
<rect x="281.4" y="1.2" class="st0" width="4.7" height="40.4"/>
</svg>
