<?xml version="1.0" encoding="utf-8"?>
<!-- Generator: Adobe Illustrator 27.0.1, SVG Export Plug-In . SVG Version: 6.00 Build 0)  -->
<svg version="1.1" id="Layer_1" xmlns="http://www.w3.org/2000/svg" xmlns:xlink="http://www.w3.org/1999/xlink" x="0px" y="0px"
	 viewBox="0 0 58.2 58.2" style="enable-background:new 0 0 58.2 58.2;" xml:space="preserve">
<style type="text/css">
	.st0{clip-path:url(#SVGID_00000103239369326245608040000007216803188056763548_);fill:#231F20;}
</style>
<g>
	<defs>
		<rect id="SVGID_1_" x="0.6" y="1" width="56.3" height="56.3"/>
	</defs>
	<clipPath id="SVGID_00000168106626108812399570000002682219126973073837_">
		<use xlink:href="#SVGID_1_"  style="overflow:visible;"/>
	</clipPath>
	<path style="clip-path:url(#SVGID_00000168106626108812399570000002682219126973073837_);fill:#231F20;" d="M28.8,1
		c-7.7,0-8.6,0-11.6,0.2c-3,0.1-5,0.6-6.8,1.3c-1.9,0.7-3.4,1.7-5,3.3c-1.6,1.6-2.5,3.1-3.3,5c-0.7,1.8-1.2,3.8-1.3,6.8
		c-0.1,3-0.2,4-0.2,11.6c0,7.7,0,8.6,0.2,11.6c0.1,3,0.6,5,1.3,6.8c0.7,1.9,1.7,3.4,3.3,5c1.6,1.6,3.1,2.5,5,3.2
		c1.8,0.7,3.8,1.2,6.8,1.3c3,0.1,4,0.2,11.6,0.2s8.6,0,11.6-0.2c3-0.1,5-0.6,6.8-1.3c1.9-0.7,3.4-1.7,5-3.2c1.6-1.6,2.5-3.1,3.3-5
		c0.7-1.8,1.2-3.8,1.3-6.8c0.1-3,0.2-4,0.2-11.6c0-7.6,0-8.6-0.2-11.6c-0.1-3-0.6-5-1.3-6.8c-0.7-1.8-1.7-3.4-3.3-5
		c-1.6-1.6-3.1-2.5-5-3.3c-1.8-0.7-3.8-1.2-6.8-1.3C37.4,1,36.4,1,28.8,1 M28.8,6.1c7.5,0,8.4,0,11.4,0.2c2.7,0.1,4.2,0.6,5.2,1
		c1.3,0.5,2.3,1.1,3.2,2.1c1,1,1.6,1.9,2.1,3.2c0.4,1,0.8,2.5,1,5.2c0.1,3,0.2,3.9,0.2,11.4s0,8.4-0.2,11.4c-0.1,2.8-0.6,4.2-1,5.2
		c-0.5,1.3-1.1,2.3-2.1,3.2c-1,1-1.9,1.6-3.2,2.1c-1,0.4-2.5,0.8-5.2,1c-3,0.1-3.9,0.2-11.4,0.2s-8.4,0-11.4-0.2
		c-2.7-0.1-4.2-0.6-5.2-1C10.8,50.6,9.9,50,8.9,49c-1-1-1.6-1.9-2.1-3.2c-0.4-1-0.8-2.5-1-5.2c-0.1-3-0.2-3.9-0.2-11.4
		s0-8.4,0.2-11.4c0.1-2.7,0.6-4.2,1-5.2c0.5-1.3,1.1-2.3,2.1-3.2c1-1,1.9-1.6,3.2-2.1c1-0.4,2.5-0.8,5.2-1
		C20.4,6.1,21.2,6.1,28.8,6.1"/>
	<path style="clip-path:url(#SVGID_00000168106626108812399570000002682219126973073837_);fill:#231F20;" d="M28.8,38.5
		c-5.2,0-9.4-4.2-9.4-9.4s4.2-9.4,9.4-9.4s9.4,4.2,9.4,9.4S34,38.5,28.8,38.5 M28.8,14.7c-8,0-14.5,6.5-14.5,14.5
		c0,8,6.5,14.5,14.5,14.5s14.5-6.5,14.5-14.5C43.2,21.2,36.8,14.7,28.8,14.7"/>
	<path style="clip-path:url(#SVGID_00000168106626108812399570000002682219126973073837_);fill:#231F20;" d="M47.2,14.1
		c0,1.9-1.5,3.4-3.4,3.4s-3.4-1.5-3.4-3.4s1.5-3.4,3.4-3.4S47.2,12.2,47.2,14.1"/>
</g>
</svg>
